<!-- Generated by IcoMoon.io -->
<svg version="1.1" xmlns="http://www.w3.org/2000/svg" width="1024" height="1024" viewBox="0 0 1024 1024">
<title></title>
<g id="icomoon-ignore">
</g>
<path fill="#000" d="M480 320c0-17.673 14.327-32 32-32s32 14.327 32 32c0 17.673-14.327 32-32 32s-32-14.327-32-32zM480 704c0-17.673 14.327-32 32-32s32 14.327 32 32c0 17.673-14.327 32-32 32s-32-14.327-32-32zM288 512c0-17.673 14.327-32 32-32s32 14.327 32 32c0 17.673-14.327 32-32 32s-32-14.327-32-32zM672 512c0-17.673 14.327-32 32-32s32 14.327 32 32c0 17.673-14.327 32-32 32s-32-14.327-32-32zM344.224 647.744c0-17.673 14.327-32 32-32s32 14.327 32 32c0 17.673-14.327 32-32 32s-32-14.327-32-32zM344.224 376.224c0-17.673 14.327-32 32-32s32 14.327 32 32c0 17.673-14.327 32-32 32s-32-14.327-32-32zM615.744 647.744c0-17.673 14.327-32 32-32s32 14.327 32 32c0 17.673-14.327 32-32 32s-32-14.327-32-32zM832 448c-2.24 0-4.128 1.056-6.304 1.28-11.136-55.84-37.44-105.792-73.504-147.008l-45.952-249.984c-5.6-30.304-32.064-52.288-62.912-52.288h-256c-30.848 0-57.28 22.016-62.944 52.32l-44.8 241.568c-53.76 57.184-87.584 133.376-87.584 218.112 0 82.656 32.448 156.96 83.872 213.696l45.184 246.016c5.632 30.272 32.096 52.288 62.944 52.288h256c30.816 0 57.248-22.016 62.944-52.32l45.568-245.824c38.048-41.952 65.696-93.44 77.184-151.2 2.176 0.288 4.064 1.344 6.304 1.344 35.328 0 64-28.672 64-64 0-35.36-28.672-64-64-64zM387.328 64h256l32 172.384c-47.264-27.488-101.376-44.384-160-44.384-58.592 0-112.736 16.896-160 44.384l32-172.384zM640 960h-256l-32-172.384c47.232 27.456 101.376 44.384 160 44.384 58.592 0 112.768-16.928 160-44.384l-32 172.384zM512 768c-141.152 0-256-114.88-256-256 0-141.152 114.848-256 256-256s256 114.848 256 256c0 141.12-114.88 256-256 256zM670.112 352.832c3.872 3.872 4.256 10.112 0.896 14.368l-77.632 96.672-59.136 71.2c-6.048 5.824-14.368 8.8-22.368 8.864-8.608-0.064-16.64-3.392-22.624-9.344s-9.248-13.92-9.248-22.336c0-8.704 3.36-16.832 9.472-22.976l166.144-137.12c4.384-3.52 10.624-3.2 14.496 0.672z"></path>
</svg>
